# 3ds Max Wavefront OBJ Exporter v0.97b - (c)2007 guruware
# File Created: 30.05.2014 20:59:23

mtllib Europalette.mtl

#
# object Object001
#

v  27.9326 4.8137 -33.6853
v  27.9326 4.8137 -28.7640
v  27.1452 4.8137 -27.9766
v  -19.3115 4.8137 -28.7640
v  -18.5241 4.8137 -27.9766
v  -19.3115 4.8137 -33.6853
v  -18.5241 5.6798 -27.9766
v  27.1452 5.6798 -27.9766
v  27.9326 5.6798 -28.7640
v  27.9326 5.6798 -33.6853
v  -19.3115 5.6798 -33.6853
v  -19.3115 5.6798 -28.7640
v  -19.3115 4.8137 -35.2601
v  -19.3115 4.8137 -39.1971
v  27.9326 4.8137 -39.1971
v  27.9326 4.8137 -35.2601
v  -19.3115 5.6798 -35.2601
v  27.9326 5.6798 -35.2601
v  27.9326 5.6798 -39.1971
v  -19.3115 5.6798 -39.1971
v  -19.3115 4.8137 -40.7719
v  -19.3115 4.8137 -46.4806
v  27.9326 4.8137 -46.4806
v  27.9326 4.8137 -40.7719
v  -19.3115 5.6798 -40.7719
v  27.9326 5.6798 -40.7719
v  27.9326 5.6798 -46.4806
v  -19.3115 5.6798 -46.4806
v  -19.3115 4.8137 -48.0554
v  -19.3115 4.8137 -51.9924
v  27.9326 4.8137 -51.9924
v  27.9326 4.8137 -48.0554
v  -19.3115 5.6798 -48.0554
v  27.9326 5.6798 -48.0554
v  27.9326 5.6798 -51.9924
v  -19.3115 5.6798 -51.9924
v  -18.5241 4.8137 -59.2758
v  27.1452 4.8137 -59.2758
v  27.9326 4.8137 -58.4884
v  -19.3115 4.8137 -53.5672
v  27.9326 4.8137 -53.5672
v  -19.3115 4.8137 -58.4884
v  27.1452 5.6798 -59.2758
v  -18.5241 5.6798 -59.2758
v  -19.3115 5.6798 -58.4884
v  -19.3115 5.6798 -53.5672
v  27.9326 5.6798 -53.5672
v  27.9326 5.6798 -58.4884
v  22.2239 3.9475 -59.2758
v  27.1452 3.9475 -59.2758
v  27.9326 3.9475 -58.4884
v  27.1452 3.9475 -27.9766
v  27.9326 3.9475 -28.7640
v  22.2239 3.9475 -27.9766
v  22.2239 4.8137 -59.2758
v  22.2239 4.8137 -27.9766
v  22.2239 0.8767 -55.3388
v  27.9326 0.8767 -55.3388
v  27.9326 3.9475 -55.3388
v  22.2239 3.9475 -55.3388
v  27.9326 0.8767 -58.4884
v  27.1452 0.8767 -59.2758
v  22.2239 0.8767 -59.2758
v  -18.5241 0.0105 -59.2758
v  27.1452 0.0105 -59.2758
v  27.9326 0.0105 -58.4884
v  -19.3115 0.0105 -55.3388
v  27.9326 0.0105 -55.3388
v  -19.3115 0.0105 -58.4884
v  -18.5241 0.8767 -59.2758
v  -19.3115 0.8767 -58.4884
v  -19.3115 0.8767 -55.3388
v  22.2239 0.8767 -40.7719
v  27.9326 0.8767 -40.7719
v  27.9326 3.9475 -40.7719
v  22.2239 3.9475 -40.7719
v  27.9326 0.8767 -46.4806
v  27.9326 3.9475 -46.4806
v  22.2239 0.8767 -46.4806
v  22.2239 3.9475 -46.4806
v  -19.3115 0.0105 -40.7719
v  -19.3115 0.0105 -46.4806
v  27.9326 0.0105 -46.4806
v  27.9326 0.0105 -40.7719
v  -19.3115 0.8767 -40.7719
v  -19.3115 0.8767 -46.4806
v  27.9326 0.0105 -31.9136
v  27.9326 0.0105 -28.7640
v  27.1452 0.0105 -27.9766
v  -19.3115 0.0105 -28.7640
v  -18.5241 0.0105 -27.9766
v  -19.3115 0.0105 -31.9136
v  -18.5241 0.8767 -27.9766
v  27.1452 0.8767 -27.9766
v  27.9326 0.8767 -28.7640
v  27.9326 0.8767 -31.9136
v  -19.3115 0.8767 -31.9136
v  -19.3115 0.8767 -28.7640
v  22.2239 0.8767 -27.9766
v  27.9326 3.9475 -31.9136
v  22.2239 0.8767 -31.9136
v  22.2239 3.9475 -31.9136
v  7.1649 3.9475 -27.9766
v  1.4562 3.9475 -27.9766
v  1.4562 3.9475 -59.2758
v  7.1649 3.9475 -59.2758
v  7.1649 4.8137 -27.9766
v  7.1649 4.8137 -59.2758
v  1.4562 4.8137 -59.2758
v  1.4562 4.8137 -27.9766
v  -19.3115 3.9475 -28.7640
v  -19.3115 3.9475 -58.4884
v  -18.5241 3.9475 -59.2758
v  -13.6029 3.9475 -27.9766
v  -13.6029 3.9475 -59.2758
v  -18.5241 3.9475 -27.9766
v  -13.6029 4.8137 -27.9766
v  -13.6029 4.8137 -59.2758
v  1.4562 0.8767 -27.9766
v  7.1649 0.8767 -27.9766
v  7.1649 0.8767 -31.9136
v  7.1649 3.9475 -31.9136
v  1.4562 0.8767 -31.9136
v  1.4562 3.9475 -31.9136
v  1.4562 0.8767 -40.7719
v  7.1649 0.8767 -40.7719
v  7.1649 3.9475 -40.7719
v  1.4562 3.9475 -40.7719
v  7.1649 0.8767 -46.4806
v  7.1649 3.9475 -46.4806
v  1.4562 0.8767 -46.4806
v  1.4562 3.9475 -46.4806
v  1.4562 0.8767 -55.3388
v  7.1649 0.8767 -55.3388
v  7.1649 3.9475 -55.3388
v  1.4562 3.9475 -55.3388
v  7.1649 0.8767 -59.2758
v  1.4562 0.8767 -59.2758
v  -13.6029 0.8767 -55.3388
v  -13.6029 3.9475 -55.3388
v  -19.3115 3.9475 -55.3388
v  -13.6029 0.8767 -59.2758
v  -13.6029 0.8767 -40.7719
v  -13.6029 3.9475 -40.7719
v  -19.3115 3.9475 -40.7719
v  -13.6029 0.8767 -46.4806
v  -13.6029 3.9475 -46.4806
v  -19.3115 3.9475 -46.4806
v  -13.6029 0.8767 -27.9766
v  -13.6029 0.8767 -31.9136
v  -13.6029 3.9475 -31.9136
v  -19.3115 3.9475 -31.9136
# 152 vertices

vn 0.0000 -1.0000 -0.0000
vn 0.0000 1.0000 -0.0000
vn 0.0000 0.0000 1.0000
vn 1.0000 0.0000 -0.0000
vn 0.0000 0.0000 -1.0000
vn -1.0000 0.0000 -0.0000
vn 0.7071 0.0000 0.7071
vn 0.7071 0.0000 -0.7071
vn -0.7071 0.0000 -0.7071
vn -0.7071 0.0000 0.7071
# 10 vertex normals

vt 0.0141 0.5676 0.0000
vt 0.0141 0.5189 0.0000
vt 0.0221 0.5112 0.0000
vt 0.4938 0.5189 0.0000
vt 0.4858 0.5112 0.0000
vt 0.4938 0.5676 0.0000
vt 0.4858 0.6326 0.0000
vt 0.0221 0.6326 0.0000
vt 0.0141 0.6248 0.0000
vt 0.0141 0.5762 0.0000
vt 0.4938 0.5762 0.0000
vt 0.4938 0.6248 0.0000
vt 0.0221 0.5026 0.0000
vt 0.4858 0.5026 0.0000
vt 0.0053 0.6248 0.0000
vt 0.0053 0.5762 0.0000
vt 0.5026 0.5762 0.0000
vt 0.5026 0.6248 0.0000
vt 0.4757 0.7755 0.0000
vt 0.4757 0.8140 0.0000
vt 0.0138 0.8140 0.0000
vt 0.0138 0.7755 0.0000
vt 0.4757 0.8610 0.0000
vt 0.0138 0.8610 0.0000
vt 0.0138 0.8225 0.0000
vt 0.4757 0.8225 0.0000
vt 0.4757 0.8695 0.0000
vt 0.0138 0.8695 0.0000
vt 0.0053 0.8610 0.0000
vt 0.0053 0.8225 0.0000
vt 0.4842 0.8225 0.0000
vt 0.4842 0.8610 0.0000
vt 0.5074 0.1519 0.0000
vt 0.5074 0.2115 0.0000
vt 0.0144 0.2115 0.0000
vt 0.0144 0.1519 0.0000
vt 0.5074 0.2801 0.0000
vt 0.0144 0.2801 0.0000
vt 0.0144 0.2205 0.0000
vt 0.5074 0.2205 0.0000
vt 0.5074 0.2891 0.0000
vt 0.0144 0.2891 0.0000
vt 0.0053 0.2801 0.0000
vt 0.0053 0.2205 0.0000
vt 0.5165 0.2205 0.0000
vt 0.5165 0.2801 0.0000
vt 0.4757 0.8756 0.0000
vt 0.4757 0.9141 0.0000
vt 0.0138 0.9141 0.0000
vt 0.0138 0.8756 0.0000
vt 0.4757 0.9610 0.0000
vt 0.0138 0.9610 0.0000
vt 0.0138 0.9225 0.0000
vt 0.4757 0.9225 0.0000
vt 0.4757 0.9695 0.0000
vt 0.0138 0.9695 0.0000
vt 0.0053 0.9610 0.0000
vt 0.0053 0.9225 0.0000
vt 0.4842 0.9225 0.0000
vt 0.4842 0.9610 0.0000
vt 0.4858 0.7701 0.0000
vt 0.0221 0.7701 0.0000
vt 0.0141 0.7623 0.0000
vt 0.4938 0.7137 0.0000
vt 0.0141 0.7137 0.0000
vt 0.4938 0.7623 0.0000
vt 0.0221 0.6487 0.0000
vt 0.4858 0.6487 0.0000
vt 0.4938 0.6564 0.0000
vt 0.4938 0.7051 0.0000
vt 0.0141 0.7051 0.0000
vt 0.0141 0.6564 0.0000
vt 0.0053 0.7623 0.0000
vt 0.0053 0.7137 0.0000
vt 0.0221 0.6401 0.0000
vt 0.4858 0.6401 0.0000
vt 0.5026 0.7137 0.0000
vt 0.5026 0.7623 0.0000
vt 0.5471 0.2049 0.0000
vt 0.5471 0.1531 0.0000
vt 0.5554 0.1448 0.0000
vt 0.8762 0.1531 0.0000
vt 0.8679 0.1448 0.0000
vt 0.8762 0.2049 0.0000
vt 0.8679 0.2740 0.0000
vt 0.5554 0.2740 0.0000
vt 0.5471 0.2657 0.0000
vt 0.5471 0.2140 0.0000
vt 0.8762 0.2140 0.0000
vt 0.8762 0.2657 0.0000
vt 0.8679 0.2831 0.0000
vt 0.5554 0.2831 0.0000
vt 0.5380 0.2657 0.0000
vt 0.5380 0.2140 0.0000
vt 0.8853 0.2140 0.0000
vt 0.8853 0.2657 0.0000
vt 0.7929 0.9042 0.0000
vt 0.7068 0.9042 0.0000
vt 0.7068 0.8523 0.0000
vt 0.7929 0.8523 0.0000
vt 0.6517 0.9042 0.0000
vt 0.6517 0.8523 0.0000
vt 0.6379 0.9042 0.0000
vt 0.5380 0.9042 0.0000
vt 0.5380 0.8523 0.0000
vt 0.6379 0.8523 0.0000
vt 0.8618 0.9042 0.0000
vt 0.8618 0.8523 0.0000
vt 0.4842 0.4955 0.0000
vt 0.0221 0.4955 0.0000
vt 0.0141 0.4875 0.0000
vt 0.4921 0.4557 0.0000
vt 0.0141 0.4557 0.0000
vt 0.4921 0.4875 0.0000
vt 0.0221 0.4071 0.0000
vt 0.4842 0.4071 0.0000
vt 0.4921 0.4150 0.0000
vt 0.4921 0.4469 0.0000
vt 0.0141 0.4469 0.0000
vt 0.0141 0.4150 0.0000
vt 0.0053 0.4469 0.0000
vt 0.0053 0.4150 0.0000
vt 0.0221 0.3983 0.0000
vt 0.4842 0.3983 0.0000
vt 0.5009 0.4150 0.0000
vt 0.5009 0.4469 0.0000
vt 0.6242 0.4864 0.0000
vt 0.5380 0.4864 0.0000
vt 0.5380 0.4401 0.0000
vt 0.6242 0.4401 0.0000
vt 0.8826 0.4864 0.0000
vt 0.7965 0.4864 0.0000
vt 0.7965 0.4401 0.0000
vt 0.8826 0.4401 0.0000
vt 0.7103 0.4864 0.0000
vt 0.7103 0.4401 0.0000
vt 0.5159 0.0037 0.0000
vt 0.5159 0.0643 0.0000
vt 0.0145 0.0643 0.0000
vt 0.0145 0.0037 0.0000
vt 0.5159 0.1340 0.0000
vt 0.0145 0.1340 0.0000
vt 0.0145 0.0735 0.0000
vt 0.5159 0.0735 0.0000
vt 0.5159 0.1432 0.0000
vt 0.0145 0.1432 0.0000
vt 0.0053 0.1340 0.0000
vt 0.0053 0.0735 0.0000
vt 0.5251 0.0735 0.0000
vt 0.5251 0.1340 0.0000
vt 0.0141 0.3411 0.0000
vt 0.0141 0.3092 0.0000
vt 0.0221 0.3013 0.0000
vt 0.4921 0.3092 0.0000
vt 0.4842 0.3013 0.0000
vt 0.4921 0.3411 0.0000
vt 0.4842 0.3897 0.0000
vt 0.0221 0.3897 0.0000
vt 0.0141 0.3817 0.0000
vt 0.0141 0.3499 0.0000
vt 0.4921 0.3499 0.0000
vt 0.4921 0.3817 0.0000
vt 0.0221 0.2925 0.0000
vt 0.4842 0.2925 0.0000
vt 0.0053 0.3817 0.0000
vt 0.0053 0.3499 0.0000
vt 0.5009 0.3499 0.0000
vt 0.5009 0.3817 0.0000
vt 0.7929 0.7422 0.0000
vt 0.7068 0.7422 0.0000
vt 0.7068 0.6903 0.0000
vt 0.7929 0.6903 0.0000
vt 0.6517 0.7422 0.0000
vt 0.6517 0.6903 0.0000
vt 0.6379 0.7422 0.0000
vt 0.5380 0.7422 0.0000
vt 0.5380 0.6903 0.0000
vt 0.6379 0.6903 0.0000
vt 0.8618 0.7422 0.0000
vt 0.8618 0.6903 0.0000
vt 0.8786 0.2984 0.0000
vt 0.8786 0.3589 0.0000
vt 0.5472 0.3589 0.0000
vt 0.5472 0.2984 0.0000
vt 0.8786 0.4285 0.0000
vt 0.5472 0.4285 0.0000
vt 0.5472 0.3680 0.0000
vt 0.8786 0.3680 0.0000
vt 0.5472 0.2892 0.0000
vt 0.8786 0.2892 0.0000
vt 0.5380 0.3589 0.0000
vt 0.5380 0.2984 0.0000
vt 0.8878 0.2984 0.0000
vt 0.8878 0.3589 0.0000
vt 0.5554 0.0128 0.0000
vt 0.8671 0.0128 0.0000
vt 0.8753 0.0210 0.0000
vt 0.5471 0.0726 0.0000
vt 0.8753 0.0726 0.0000
vt 0.5471 0.0210 0.0000
vt 0.8671 0.1416 0.0000
vt 0.5554 0.1416 0.0000
vt 0.5471 0.1333 0.0000
vt 0.5471 0.0817 0.0000
vt 0.8753 0.0817 0.0000
vt 0.8753 0.1333 0.0000
vt 0.8844 0.0210 0.0000
vt 0.8844 0.0726 0.0000
vt 0.5554 0.0037 0.0000
vt 0.8671 0.0037 0.0000
vt 0.5380 0.0726 0.0000
vt 0.5380 0.0210 0.0000
vt 0.6242 0.6326 0.0000
vt 0.5380 0.6326 0.0000
vt 0.5380 0.5863 0.0000
vt 0.6242 0.5863 0.0000
vt 0.8826 0.6326 0.0000
vt 0.7965 0.6326 0.0000
vt 0.7965 0.5863 0.0000
vt 0.8826 0.5863 0.0000
vt 0.7103 0.6326 0.0000
vt 0.7103 0.5863 0.0000
vt 0.6242 0.6811 0.0000
vt 0.5380 0.6811 0.0000
vt 0.5380 0.6348 0.0000
vt 0.6242 0.6348 0.0000
vt 0.8826 0.6811 0.0000
vt 0.7965 0.6811 0.0000
vt 0.7965 0.6348 0.0000
vt 0.8826 0.6348 0.0000
vt 0.7103 0.6811 0.0000
vt 0.7103 0.6348 0.0000
vt 0.6242 0.5358 0.0000
vt 0.5380 0.5358 0.0000
vt 0.5380 0.4895 0.0000
vt 0.6242 0.4895 0.0000
vt 0.8826 0.5358 0.0000
vt 0.7965 0.5358 0.0000
vt 0.7965 0.4895 0.0000
vt 0.8826 0.4895 0.0000
vt 0.7103 0.5358 0.0000
vt 0.7103 0.4895 0.0000
vt 0.7929 0.8498 0.0000
vt 0.7068 0.8498 0.0000
vt 0.7068 0.7980 0.0000
vt 0.7929 0.7980 0.0000
vt 0.6517 0.8498 0.0000
vt 0.6517 0.7980 0.0000
vt 0.6379 0.8498 0.0000
vt 0.5380 0.8498 0.0000
vt 0.5380 0.7980 0.0000
vt 0.6379 0.7980 0.0000
vt 0.8618 0.8498 0.0000
vt 0.8618 0.7980 0.0000
vt 0.6242 0.5844 0.0000
vt 0.5380 0.5844 0.0000
vt 0.5380 0.5381 0.0000
vt 0.6242 0.5381 0.0000
vt 0.8826 0.5844 0.0000
vt 0.7965 0.5844 0.0000
vt 0.7965 0.5381 0.0000
vt 0.8826 0.5381 0.0000
vt 0.7103 0.5844 0.0000
vt 0.7103 0.5381 0.0000
vt 0.7929 0.7957 0.0000
vt 0.7068 0.7957 0.0000
vt 0.7068 0.7439 0.0000
vt 0.7929 0.7439 0.0000
vt 0.6517 0.7957 0.0000
vt 0.6517 0.7439 0.0000
vt 0.6379 0.7957 0.0000
vt 0.5380 0.7957 0.0000
vt 0.5380 0.7439 0.0000
vt 0.6379 0.7439 0.0000
vt 0.8618 0.7957 0.0000
vt 0.8618 0.7439 0.0000
vt 0.0141 0.6326 0.0000
vt 0.0053 0.6326 0.0000
vt 0.8762 0.2831 0.0000
vt 0.8762 0.2740 0.0000
vt 0.0141 0.3897 0.0000
vt 0.0053 0.3897 0.0000
vt 0.0053 0.7701 0.0000
vt 0.0141 0.7701 0.0000
vt 0.5471 0.2740 0.0000
vt 0.5471 0.2831 0.0000
vt 0.0141 0.4071 0.0000
vt 0.0053 0.4071 0.0000
vt 0.5026 0.7701 0.0000
vt 0.4938 0.7701 0.0000
vt 0.8753 0.0037 0.0000
vt 0.8753 0.0128 0.0000
vt 0.4921 0.4071 0.0000
vt 0.5009 0.4071 0.0000
vt 0.5026 0.6326 0.0000
vt 0.4938 0.6326 0.0000
vt 0.5471 0.0037 0.0000
vt 0.5471 0.0128 0.0000
vt 0.5009 0.3897 0.0000
vt 0.4921 0.3897 0.0000
# 300 texture coords

g Object001
usemtl 07___Default
s 2
f 1/1/1 2/2/1 3/3/1 4/4/1 
f 3/3/1 5/5/1 4/4/1 
f 1/1/1 4/4/1 6/6/1 
s 4
f 7/7/2 8/8/2 9/9/2 10/10/2 
f 7/7/2 10/10/2 11/11/2 12/12/2 
s 8
f 5/5/3 3/3/3 8/13/3 7/14/3 
s 16
f 2/15/4 1/16/4 10/10/4 9/9/4 
s 32
f 1/1/5 6/6/5 11/11/5 10/10/5 
s 64
f 6/17/6 4/18/6 12/12/6 11/11/6 
s 2
f 13/19/1 14/20/1 15/21/1 16/22/1 
s 4
f 17/23/2 18/24/2 19/25/2 20/26/2 
s 8
f 13/27/3 16/28/3 18/24/3 17/23/3 
s 16
f 16/29/4 15/30/4 19/25/4 18/24/4 
s 32
f 15/21/5 14/20/5 20/26/5 19/25/5 
s 64
f 14/31/6 13/32/6 17/23/6 20/26/6 
s 2
f 21/33/1 22/34/1 23/35/1 24/36/1 
s 4
f 25/37/2 26/38/2 27/39/2 28/40/2 
s 8
f 21/41/3 24/42/3 26/38/3 25/37/3 
s 16
f 24/43/4 23/44/4 27/39/4 26/38/4 
s 32
f 23/35/5 22/34/5 28/40/5 27/39/5 
s 64
f 22/45/6 21/46/6 25/37/6 28/40/6 
s 2
f 29/47/1 30/48/1 31/49/1 32/50/1 
s 4
f 33/51/2 34/52/2 35/53/2 36/54/2 
s 8
f 29/55/3 32/56/3 34/52/3 33/51/3 
s 16
f 32/57/4 31/58/4 35/53/4 34/52/4 
s 32
f 31/49/5 30/48/5 36/54/5 35/53/5 
s 64
f 30/59/6 29/60/6 33/51/6 36/54/6 
s 2
f 37/61/1 38/62/1 39/63/1 40/64/1 
f 39/63/1 41/65/1 40/64/1 
f 37/61/1 40/64/1 42/66/1 
s 4
f 43/67/2 44/68/2 45/69/2 46/70/2 
f 43/67/2 46/70/2 47/71/2 48/72/2 
s 8
f 40/64/3 41/65/3 47/71/3 46/70/3 
s 16
f 41/65/4 39/63/4 48/73/4 47/74/4 
s 32
f 38/75/5 37/76/5 44/68/5 43/67/5 
s 64
f 42/66/6 40/64/6 46/77/6 45/78/6 
s 2
f 49/79/1 50/80/1 51/81/1 52/82/1 
f 51/81/1 53/83/1 52/82/1 
f 49/79/1 52/82/1 54/84/1 
s 4
f 2/85/2 39/86/2 38/87/2 55/88/2 
f 2/85/2 55/88/2 56/89/2 3/90/2 
s 8
f 53/91/4 51/92/4 39/86/4 2/85/4 
s 16
f 50/93/5 49/94/5 55/88/5 38/87/5 
s 32
f 49/79/6 54/84/6 56/89/6 55/88/6 
s 64
f 54/95/3 52/96/3 3/90/3 56/89/3 
s 8
f 57/97/3 58/98/3 59/99/3 60/100/3 
s 16
f 58/98/4 61/101/4 51/102/4 59/99/4 
s 32
f 62/103/5 63/104/5 49/105/5 50/106/5 
s 64
f 63/107/6 57/97/6 60/100/6 49/108/6 
s 2
f 64/109/1 65/110/1 66/111/1 67/112/1 
f 66/111/1 68/113/1 67/112/1 
f 64/109/1 67/112/1 69/114/1 
s 4
f 62/115/2 70/116/2 71/117/2 72/118/2 
f 62/115/2 72/118/2 58/119/2 61/120/2 
s 8
f 67/112/3 68/113/3 58/119/3 72/118/3 
s 16
f 68/121/4 66/122/4 61/120/4 58/119/4 
s 32
f 65/123/5 64/124/5 70/116/5 62/115/5 
s 64
f 69/125/6 67/126/6 72/118/6 71/117/6 
s 8
f 73/127/3 74/128/3 75/129/3 76/130/3 
s 16
f 74/131/4 77/132/4 78/133/4 75/134/4 
s 32
f 77/132/5 79/135/5 80/136/5 78/133/5 
s 64
f 79/135/6 73/127/6 76/130/6 80/136/6 
s 2
f 81/137/1 82/138/1 83/139/1 84/140/1 
s 4
f 85/141/2 74/142/2 77/143/2 86/144/2 
s 8
f 81/145/3 84/146/3 74/142/3 85/141/3 
s 16
f 84/147/4 83/148/4 77/143/4 74/142/4 
s 32
f 83/139/5 82/138/5 86/144/5 77/143/5 
s 64
f 82/149/6 81/150/6 85/141/6 86/144/6 
s 2
f 87/151/1 88/152/1 89/153/1 90/154/1 
f 89/153/1 91/155/1 90/154/1 
f 87/151/1 90/154/1 92/156/1 
s 4
f 93/157/2 94/158/2 95/159/2 96/160/2 
f 93/157/2 96/160/2 97/161/2 98/162/2 
s 8
f 91/155/3 89/153/3 94/163/3 93/164/3 
s 16
f 88/165/4 87/166/4 96/160/4 95/159/4 
s 32
f 87/151/5 92/156/5 97/161/5 96/160/5 
s 64
f 92/167/6 90/168/6 98/162/6 97/161/6 
s 8
f 99/169/3 94/170/3 52/171/3 54/172/3 
s 16
f 95/170/4 96/173/4 100/174/4 53/171/4 
s 32
f 96/175/5 101/176/5 102/177/5 100/178/5 
s 64
f 101/179/6 99/169/6 54/172/6 102/180/6 
s 2
f 103/181/1 104/182/1 105/183/1 106/184/1 
s 4
f 107/185/2 108/186/2 109/187/2 110/188/2 
s 8
f 103/181/4 106/184/4 108/189/4 107/190/4 
s 16
f 106/184/5 105/183/5 109/191/5 108/192/5 
s 32
f 105/183/6 104/182/6 110/188/6 109/187/6 
s 64
f 104/182/3 103/181/3 107/193/3 110/194/3 
s 2
f 111/195/1 112/196/1 113/197/1 114/198/1 
f 113/197/1 115/199/1 114/198/1 
f 111/195/1 114/198/1 116/200/1 
s 4
f 42/201/2 4/202/2 5/203/2 117/204/2 
f 42/201/2 117/204/2 118/205/2 37/206/2 
s 8
f 114/198/4 115/199/4 118/205/4 117/204/4 
s 16
f 115/199/5 113/197/5 37/207/5 118/208/5 
s 32
f 112/196/6 111/195/6 4/209/6 42/210/6 
s 64
f 116/200/3 114/198/3 117/211/3 5/212/3 
s 8
f 119/213/3 120/214/3 103/215/3 104/216/3 
s 16
f 120/217/4 121/218/4 122/219/4 103/220/4 
s 32
f 121/218/5 123/221/5 124/222/5 122/219/5 
s 64
f 123/221/6 119/213/6 104/216/6 124/222/6 
s 8
f 125/223/3 126/224/3 127/225/3 128/226/3 
s 16
f 126/227/4 129/228/4 130/229/4 127/230/4 
s 32
f 129/228/5 131/231/5 132/232/5 130/229/5 
s 64
f 131/231/6 125/223/6 128/226/6 132/232/6 
s 8
f 133/233/3 134/234/3 135/235/3 136/236/3 
s 16
f 134/237/4 137/238/4 106/239/4 135/240/4 
s 32
f 137/238/5 138/241/5 105/242/5 106/239/5 
s 64
f 138/241/6 133/233/6 136/236/6 105/242/6 
s 8
f 72/243/3 139/244/3 140/245/3 141/246/3 
s 16
f 139/244/4 142/247/4 115/248/4 140/245/4 
s 32
f 142/249/5 70/250/5 113/251/5 115/252/5 
s 64
f 71/253/6 72/243/6 141/246/6 112/254/6 
s 8
f 85/255/3 143/256/3 144/257/3 145/258/3 
s 16
f 143/259/4 146/260/4 147/261/4 144/262/4 
s 32
f 146/260/5 86/263/5 148/264/5 147/261/5 
s 64
f 86/263/6 85/255/6 145/258/6 148/264/6 
s 8
f 93/265/3 149/266/3 114/267/3 116/268/3 
s 16
f 149/266/4 150/269/4 151/270/4 114/267/4 
s 32
f 150/271/5 97/272/5 152/273/5 151/274/5 
s 64
f 97/275/6 98/265/6 111/268/6 152/276/6 
s off
f 9/9/7 8/277/7 3/278/7 2/15/7 
f 52/279/7 53/91/7 2/85/7 3/280/7 
f 53/178/7 52/174/7 94/173/7 95/175/7 
f 95/159/7 94/281/7 89/282/7 88/165/7 
f 43/283/8 48/73/8 39/63/8 38/284/8 
f 50/106/8 51/102/8 61/101/8 62/103/8 
f 38/285/8 39/86/8 51/92/8 50/286/8 
f 62/287/8 61/120/8 66/122/8 65/288/8 
f 45/78/9 44/289/9 37/290/9 42/66/9 
f 42/210/9 37/291/9 113/292/9 112/196/9 
f 112/252/9 113/248/9 70/247/9 71/249/9 
f 71/117/9 70/293/9 64/294/9 69/125/9 
f 4/18/10 5/295/10 7/296/10 12/12/10 
f 5/297/10 4/209/10 111/195/10 116/298/10 
f 98/274/10 93/270/10 116/269/10 111/271/10 
f 90/168/10 91/299/10 93/300/10 98/162/10 
# 124 polygons - 12 triangles

